<svg width="200" height="200" viewBox="0 0 200 200" fill="none" xmlns="http://www.w3.org/2000/svg">
<path d="M153.842 0H46.1584C20.6657 0 0 20.6657 0 46.1584V153.842C0 179.334 20.6657 200 46.1584 200H153.842C179.334 200 200 179.334 200 153.842V46.1584C200 20.6657 179.334 0 153.842 0Z" fill="url(#paint0_linear_825_61)"/>
<mask id="mask0_825_61" style="mask-type:luminance" maskUnits="userSpaceOnUse" x="35" y="61" width="140" height="106">
<path d="M175 61.9111H35.4692V166.559H175V61.9111Z" fill="white"/>
</mask>
<g mask="url(#mask0_825_61)">
<path d="M138.256 99.6836C137.837 101.404 125.425 100.66 113.849 101.868C112.919 101.496 111.943 101.171 110.873 100.892C98.7861 97.4055 80.562 100.52 67.917 107.122C77.4937 99.9623 92.4169 91.7338 106.085 91.3619C129.33 90.804 138.814 97.3127 138.256 99.6836Z" fill="url(#paint1_linear_825_61)"/>
<path d="M113.863 107.413C113.863 107.413 98.9859 99.6962 81.7848 113.968C64.5836 128.241 59.7952 147.859 63.3749 150.23C66.9546 152.601 71.0922 135.353 87.1777 123.499C96.708 116.432 110.376 110.621 117.489 120.616C125.16 125.73 113.863 107.413 113.863 107.413Z" fill="url(#paint2_linear_825_61)"/>
<path d="M123.997 147.252C123.997 147.252 127.437 106.435 89.1757 108.992C84.9919 109.317 79.1808 111.874 73.4161 114.431C65.1407 118.15 58.8646 118.615 58.0278 117.546C57.284 116.569 61.3751 112.106 67.9766 107.132C80.5754 100.531 98.7992 97.3692 110.886 100.902C111.909 101.182 112.886 101.507 113.862 101.879C123.392 105.459 128.925 111.92 130.505 121.125C133.573 138.419 126.972 149.623 123.997 147.252Z" fill="url(#paint3_linear_825_61)"/>
<path d="M106.131 87.2067C111.703 87.2067 116.219 82.6901 116.219 77.1185C116.219 71.5469 111.703 67.0303 106.131 67.0303C100.56 67.0303 96.043 71.5469 96.043 77.1185C96.043 82.6901 100.56 87.2067 106.131 87.2067Z" fill="#041669"/>
<path d="M40.0685 157.498C40.0685 157.498 88.3249 176.373 135.558 159.59C161.778 150.292 165.73 142.157 158.571 143.83C129.328 150.804 82.9784 157.916 56.6653 153.825C29.004 149.502 34.3503 154.058 40.0685 157.498Z" fill="url(#paint4_linear_825_61)"/>
</g>
<path d="M154.747 84.3403L155.603 85.2091V83.9893V80.1463C155.603 77.7912 157.494 75.8896 159.817 75.8896C162.14 75.8896 164.031 77.7912 164.031 80.1463V95.5195C164.031 97.896 162.1 99.7762 159.817 99.7762H159.806H159.793H159.78H159.767H159.754H159.741H159.727H159.713H159.699H159.685H159.67H159.656H159.641H159.626H159.611H159.596H159.58H159.564H159.548H159.532H159.516H159.499H159.483H159.466H159.449H159.432H159.414H159.397H159.379H159.361H159.343H159.324H159.306H159.287H159.268H159.249H159.23H159.211H159.191H159.172H159.152H159.132H159.111H159.091H159.07H159.05H159.029H159.008H158.986H158.965H158.943H158.922H158.9H158.878H158.856H158.833H158.811H158.788H158.765H158.742H158.719H158.696H158.672H158.649H158.625H158.601H158.577H158.553H158.528H158.504H158.479H158.454H158.429H158.404H158.379H158.354H158.328H158.302H158.277H158.251H158.224H158.198H158.172H158.145H158.119H158.092H158.065H158.038H158.011H157.983H157.956H157.928H157.901H157.873H157.845H157.817H157.788H157.76H157.732H157.703H157.674H157.645H157.616H157.587H157.558H157.529H157.499H157.47H157.44H157.41H157.38H157.35H157.32H157.29H157.259H157.229H157.198H157.168H157.137H157.106H157.075H157.044H157.012H156.981H156.95H156.918H156.886H156.854H156.823H156.791H156.759H156.726H156.694H156.662H156.629H156.597H156.564H156.531H156.498H156.465H156.432H156.399H156.366H156.333H156.299H156.266H156.232H156.198H156.165H156.131H156.097H156.063H156.029H155.995H155.96H155.926H155.892H155.857H155.823H155.788H155.753H155.718H155.684H155.649H155.614H155.578H155.543H155.508H155.473H155.437H155.402H155.366H155.331H155.295H155.259H155.224H155.188H155.152H155.116H155.08H155.044H155.008H154.971H154.935H154.899H154.863H154.826H154.79H154.753H154.716H154.68H154.643H154.606H154.57H154.533H154.496H154.459H154.422H154.385H154.348H154.311H154.273H154.236H154.199H154.162H154.124H154.087H154.049H154.012H153.974H153.937H153.899H153.862H153.824H153.786H153.749H153.711H153.673H153.635H153.597H153.56H153.522H153.484H153.446H153.408H153.37H153.332H153.294H153.256H153.218H153.179H153.141H153.103H153.065H153.027H152.989H152.95H152.912H152.874H152.836H152.797H152.759H152.721H152.682H152.644H152.606H152.567H152.529H152.491H152.452H152.414H152.376H152.337H152.299H152.26H152.222H152.184H152.145H152.107H152.069H152.03H151.992H151.953H151.915H151.877H151.838H151.8H151.762H151.723H151.685H151.647H151.608H151.57H151.532H151.494H151.455H151.417H151.379H151.341H151.302H151.264H151.226H151.188H151.15H151.112H151.074H151.036H150.998H150.96H150.922H150.884H150.846H150.808H150.77H150.732H150.695H150.657H150.619H150.582H150.544H150.506H150.469H150.431H150.394H150.356H150.319H150.281H150.244H150.207H150.169H150.132H150.095H150.058H150.021H149.984H149.947H149.91H149.873H149.836H149.799H149.762H149.726H149.689H149.652H149.616H149.579H149.543H149.506H149.47H149.434H149.397H149.361H149.325H149.289H149.253H149.217H149.181H149.146H149.11H149.074H149.039H149.003H148.968H148.932H148.897H148.862H148.826H148.791H148.756H148.721H148.686H148.652H148.617H148.582H148.548H148.513H148.479H148.444H148.41H148.376H148.342H148.308H148.274H148.24H148.206H148.172H148.139H148.105H148.072H148.039H148.005H147.972H147.939H147.906H147.873H147.84H147.808H147.775H147.743H147.71H147.678H147.646H147.614H147.582H147.55H147.518H147.486H147.455H147.423H147.392H147.36H147.329H147.298H147.267H147.236H147.206H147.175H147.144H147.114H147.084H147.053H147.023H146.993H146.964H146.934H146.904H146.875H146.845H146.816H146.787H146.758H146.729H146.7H146.672H146.643H146.615H146.587H146.558H146.53H146.503H146.475H146.447H146.42H146.392H146.365H146.338H146.311H146.284H146.258H146.231H146.205H146.178H146.152H146.126H146.1H146.075H146.049H146.024H145.998H145.973H145.948H145.923H145.899H145.874H145.85H145.825H145.801H145.777H145.754H145.73H145.706H145.683H145.66H145.637H145.614H145.591H145.569H145.546H145.524H145.502H145.48H145.458H145.437H145.415H145.394H145.373H145.352H145.331H145.311H145.29H145.27H145.25H145.23H145.21H145.19H145.171H145.152H145.133H145.114H145.095H145.077H145.058H145.04H145.022H145.004H144.987H144.969H144.952H144.935H144.918H144.901H144.885H144.868H144.852H144.836H144.82H144.805H144.789H144.774H144.759H144.744H144.73H144.715H144.701H144.687H144.673H144.659H144.646H144.633H144.62H144.607H144.594H144.582C142.259 99.7762 140.368 97.8746 140.368 95.5195C140.368 93.1644 142.259 91.2628 144.582 91.2628H148.482H149.676L148.838 90.4119L104.904 45.8276L104.477 45.3943L104.135 45.8972L68.7055 97.9319C67.8899 99.1296 66.5725 99.7768 65.2294 99.7768C64.4554 99.7768 63.6726 99.5614 62.9711 99.1107C62.9711 99.1107 62.9711 99.1107 62.9711 99.1106L27.4523 76.2787L27.4523 76.2786C25.4887 75.0166 24.9084 72.3838 26.1616 70.3988L26.1617 70.3987C27.4129 68.4162 30.0163 67.836 31.977 69.0963L63.656 89.4599L64.0657 89.7232L64.3397 89.3207L100.41 36.3448C101.121 35.3004 102.255 34.6316 103.502 34.5175L103.503 34.5175C104.752 34.4029 105.983 34.856 106.868 35.7538C106.868 35.7538 106.868 35.7538 106.868 35.7538L154.747 84.3403Z" fill="#041669" stroke="#041669"/>
<defs>
<linearGradient id="paint0_linear_825_61" x1="13.5195" y1="13.5195" x2="186.481" y2="186.481" gradientUnits="userSpaceOnUse">
<stop stop-color="white"/>
<stop offset="1" stop-color="#BABCD1"/>
</linearGradient>
<linearGradient id="paint1_linear_825_61" x1="79.7531" y1="99.7673" x2="134.63" y2="95.7784" gradientUnits="userSpaceOnUse">
<stop stop-color="#041669"/>
<stop offset="1" stop-color="#041669"/>
</linearGradient>
<linearGradient id="paint2_linear_825_61" x1="64.3527" y1="134.706" x2="117.932" y2="112.735" gradientUnits="userSpaceOnUse">
<stop stop-color="#041669"/>
<stop offset="1" stop-color="#041669"/>
</linearGradient>
<linearGradient id="paint3_linear_825_61" x1="78.3276" y1="105.138" x2="137.978" y2="139.001" gradientUnits="userSpaceOnUse">
<stop offset="0.105769" stop-color="#041669"/>
<stop offset="0.951923" stop-color="#0029AE"/>
</linearGradient>
<linearGradient id="paint4_linear_825_61" x1="35.4658" y1="155.085" x2="161.688" y2="155.085" gradientUnits="userSpaceOnUse">
<stop stop-color="#041669"/>
<stop offset="1" stop-color="#041669"/>
</linearGradient>
</defs>
</svg>
